<?xml version="1.0" encoding="utf-8"?>
<!-- Generator: Adobe Illustrator 16.2.1, SVG Export Plug-In . SVG Version: 6.00 Build 0)  -->
<!DOCTYPE svg PUBLIC "-//W3C//DTD SVG 1.1//EN" "http://www.w3.org/Graphics/SVG/1.1/DTD/svg11.dtd">
<svg version="1.1" id="Layer_1" xmlns="http://www.w3.org/2000/svg" xmlns:xlink="http://www.w3.org/1999/xlink" x="0px" y="0px"
	 width="473.81px" height="87.5px" viewBox="0 0 473.81 87.5" enable-background="new 0 0 473.81 87.5" xml:space="preserve">
<g>
	<path fill="#FFFFFF" d="M27.849,37.266h-5.12v-1.156c0-2.361-1.006-4.317-3.619-4.317c-2.811,0-3.463,2.259-3.463,4.618
		c0,2.762,0.252,3.717,2.912,4.77l3.917,1.558c4.518,1.707,5.374,4.568,5.374,9.791c0,6.025-2.21,10.492-8.838,10.492
		c-4.972,0-8.737-3.663-8.737-8.484v-1.909h5.123v1.608c0,1.855,1.003,3.665,3.615,3.665c3.465,0,3.718-2.059,3.718-5.32
		c0-3.819-0.454-4.419-2.963-5.424l-3.665-1.509c-4.42-1.805-5.574-4.72-5.574-9.186c0-5.423,2.912-9.79,8.788-9.79
		c5.12,0,8.535,4.114,8.535,8.08V37.266z"/>
	<path fill="#FFFFFF" d="M48.232,54.688c0,4.67-3.715,8.333-8.287,8.333c-4.568,0-8.285-3.663-8.285-8.333V26.97h5.123v27.215
		c0,2.511,1.357,3.716,3.162,3.716c1.81,0,3.165-1.205,3.165-3.716V26.97h5.122V54.688z"/>
	<path fill="#FFFFFF" d="M52.85,26.97h4.92l7.733,21.54h0.103V26.97h5.12v35.752h-4.82l-7.834-21.49h-0.099v21.49H52.85V26.97z"/>
	<path fill="#FFFFFF" d="M75.344,26.97h5.12v30.629h10.142v5.123H75.344V26.97z"/>
	<path fill="#FFFFFF" d="M94.069,26.97h5.123v35.752h-5.123V26.97z"/>
	<path fill="#FFFFFF" d="M103.858,35.406c0-5.826,4.418-8.734,8.589-8.734c4.165,0,8.583,2.908,8.583,8.734v1.807h-5.12v-1.807
		c0-2.461-1.607-3.614-3.463-3.614c-1.859,0-3.469,1.153-3.469,3.614v18.878c0,2.461,1.609,3.616,3.469,3.616
		c1.856,0,3.463-1.155,3.463-3.616v-6.728h-4.065v-4.519h9.186v11.246c0,5.826-4.418,8.736-8.583,8.736
		c-4.17,0-8.589-2.91-8.589-8.736V35.406z"/>
	<path fill="#FFFFFF" d="M125.549,26.97h5.12v15.314h6.327V26.97h5.119v35.752h-5.119V46.805h-6.327v15.917h-5.12V26.97z"/>
	<path fill="#FFFFFF" d="M150.301,31.792h-5.924V26.97h16.966v4.822h-5.919v30.93h-5.123V31.792z"/>
</g>
<g>
	<path fill="#E7EDEE" d="M265.461,42.578h9.633v3.5h-9.633v16.736h-4.09V26.92h15.875v3.495h-11.785V42.578z"/>
	<path fill="#E7EDEE" d="M299.747,44.624c0,5.919-0.914,10.977-3.175,14.742c-2.53,4.094-6.19,4.094-7.429,4.094
		c-7.156,0-10.653-5.813-10.653-18.351c0-8.72,1.883-18.837,10.601-18.837C297.271,26.272,299.747,34.454,299.747,44.624z
		 M282.741,44.302c0,12.158,2.474,15.661,6.35,15.661c4.788,0,6.35-5.6,6.35-15.071c0-10.008-1.725-15.119-6.35-15.119
		C284.786,29.772,282.741,34.397,282.741,44.302z"/>
	<path fill="#E7EDEE" d="M308.847,26.92v25.023c0,4.358,0.109,8.02,4.951,8.02c3.982,0,5.272-2.158,5.272-7.804V26.92H323v25.023
		c0,3.872,0,11.517-9.257,11.517c-8.88,0-8.986-6.138-8.986-11.465V26.92H308.847z"/>
	<path fill="#E7EDEE" d="M329.248,26.92h4.899l11.352,28.092l-0.214-28.092h3.659v35.895h-3.983l-12.268-30.731l0.213,30.731h-3.658
		V26.92z"/>
	<path fill="#E7EDEE" d="M355.839,26.92h5.922c4.088,0,6.78,0.588,9.146,2.688c3.124,2.64,4.953,8.883,4.953,14.961
		c0,6.674-2.207,12.593-4.79,15.229c-2.853,3.018-7.155,3.018-8.719,3.018h-6.512V26.92z M359.929,59.314h2.799
		c4.145,0,5.756-2.316,6.135-2.854c1.455-2.148,2.69-5.972,2.69-11.675c0-5.22-0.862-7.912-1.615-9.686
		c-1.721-3.931-4.786-4.685-7.48-4.685h-2.528V59.314z"/>
	<path fill="#E7EDEE" d="M389.267,26.92l8.072,35.895h-4.202l-2.255-10.386h-8.023l-2.204,10.386h-3.876l8.235-35.895H389.267z
		 M390.234,49.089l-3.283-17.92l-3.391,17.92H390.234z"/>
	<path fill="#E7EDEE" d="M402.236,30.415h-6.94V26.92h17.975v3.495h-6.941v32.399h-4.093V30.415z"/>
	<path fill="#E7EDEE" d="M416.449,26.92h4.093v35.895h-4.093V26.92z"/>
	<path fill="#E7EDEE" d="M447.449,44.624c0,5.919-0.914,10.977-3.175,14.742c-2.53,4.094-6.188,4.094-7.427,4.094
		c-7.155,0-10.655-5.813-10.655-18.351c0-8.72,1.883-18.837,10.604-18.837C444.975,26.272,447.449,34.454,447.449,44.624z
		 M430.443,44.302c0,12.158,2.477,15.661,6.353,15.661c4.789,0,6.348-5.6,6.348-15.071c0-10.008-1.721-15.119-6.348-15.119
		C432.489,29.772,430.443,34.397,430.443,44.302z"/>
	<path fill="#E7EDEE" d="M453.108,26.92h4.896l11.357,28.092l-0.219-28.092h3.659v35.895h-3.981l-12.272-30.731l0.218,30.731h-3.658
		V26.92z"/>
</g>
<g>
	<path fill="#FFFFFF" d="M232.757,2.503c-2.803-1.062-5.728-1.601-8.694-1.601c-8.892,0-17.077,4.91-21.371,12.523
		c-0.75-0.063-1.501-0.098-2.254-0.098c-11.391,0-21.761,7.161-25.802,17.82c-4.091,10.789-0.941,22.57,7.018,29.991
		c2.16,10.236,9.312,19.205,19.799,23.184c3.627,1.377,7.413,2.075,11.259,2.075c13.112,0,25.042-8.24,29.697-20.504
		c3.015-7.966,2.604-16.4-0.499-23.683c2.174-2.3,3.922-5.023,5.081-8.08C251.786,21.487,245.397,7.301,232.757,2.503z"/>
	<path opacity="0.6" fill="#F5D614" d="M201.293,16.933c4.708-12.435,18.602-18.695,31.034-13.979
		c12.431,4.715,18.686,18.607,13.972,31.042c-4.713,12.435-18.61,18.689-31.041,13.973
		C202.833,43.255,196.572,29.355,201.293,16.933z"/>
	<path opacity="0.8" fill="#FAD017" d="M175.024,31.31c5.315-14.022,20.983-21.073,35-15.754
		c14.018,5.313,21.067,20.981,15.757,34.998c-5.313,14.017-20.99,21.068-35.002,15.755C176.758,60.993,169.713,45.319,175.024,31.31
		z"/>
	<g>
		<path fill="#E7C04A" d="M200.396,68.535c-3.339,0-6.631-0.607-9.782-1.803c-14.225-5.393-21.408-21.356-16.014-35.581
			c4.04-10.661,14.406-17.823,25.8-17.823c3.342,0,6.634,0.607,9.787,1.802c14.225,5.395,21.411,21.356,16.018,35.587
			C222.163,61.373,211.795,68.535,200.396,68.535z M200.4,14.236c-11.018,0-21.045,6.927-24.953,17.233
			c-5.215,13.763,1.733,29.199,15.494,34.414c3.043,1.155,6.225,1.741,9.455,1.741c11.022,0,21.051-6.925,24.957-17.232
			c5.217-13.759-1.733-29.195-15.491-34.413C206.813,14.822,203.631,14.236,200.4,14.236z"/>
	</g>
	<g>
		<path fill="#E7C04A" d="M212.675,86.398c-3.846,0-7.634-0.698-11.259-2.074c-16.366-6.208-24.633-24.579-18.43-40.95
			c4.65-12.264,16.583-20.502,29.706-20.502c3.839,0,7.624,0.695,11.244,2.067c16.374,6.212,24.641,24.584,18.434,40.955
			C237.719,78.161,225.787,86.398,212.675,86.398z M212.691,23.78c-12.746,0-24.34,8.002-28.854,19.915
			c-6.029,15.902,2,33.747,17.901,39.78c3.522,1.338,7.204,2.016,10.937,2.016c12.736,0,24.329-8.005,28.847-19.919
			c6.029-15.904-2.005-33.751-17.908-39.783C220.093,24.455,216.419,23.78,212.691,23.78z"/>
	</g>
	<g>
		<path fill="#E7C04A" d="M224.024,49.97c-2.97,0-5.895-0.541-8.696-1.603c-6.123-2.323-10.976-6.892-13.666-12.863
			c-2.689-5.974-2.89-12.637-0.567-18.759c3.59-9.475,12.804-15.843,22.933-15.843c2.966,0,5.89,0.538,8.691,1.601
			c12.643,4.798,19.031,18.986,14.236,31.629C243.365,43.604,234.149,49.97,224.024,49.97z M224.028,1.812
			c-9.752,0-18.625,6.13-22.081,15.255c-2.241,5.898-2.043,12.312,0.544,18.063c2.59,5.752,7.262,10.153,13.161,12.39
			c2.696,1.023,5.515,1.541,8.372,1.541c9.752,0,18.625-6.128,22.08-15.251c4.619-12.176-1.531-25.841-13.709-30.457
			C229.698,2.331,226.885,1.812,224.028,1.812z"/>
	</g>
	<path fill="#E8EBED" d="M183.503,43.734c6.128-16.159,24.203-24.296,40.367-18.171c16.162,6.133,24.294,24.207,18.174,40.368
		c-6.131,16.165-24.209,24.305-40.375,18.169C185.515,77.966,177.381,59.898,183.503,43.734z"/>
</g>
</svg>
